<?xml version="1.0" encoding="UTF-8" standalone="no"?>
<svg id="svgRoot-1" class="svgRoot" xmlns="http://www.w3.org/2000/svg" width="664" height="248" xmlns:xlink="http://www.w3.org/1999/xlink" xmlns:galilei="http://www.sap.com/2014/galilei" viewBox="0 0 664 248"><defs><pattern id="pagePattern-1" patternUnits="userSpaceOnUse" x="-359" y="-523" width="718" height="1047"><path d="M718 -523 L-359 -523 L-359 1047 L718 1047 L718 -523" fill="none" stroke="#d9d9d9" stroke-width="1.5"/></pattern><pattern id="gridPattern-1" patternUnits="userSpaceOnUse" width="50" height="50"><path d="M0 10 H50 M0 20 H50 M0 30 H50 M0 40 H50 M10 0 V50 M20 0 V50 M30 0 V50 M40 0 V50" fill="none" stroke="#CEE0F2" stroke-width="1"/><path d="M50 0 L0 0 L0 50 L50 50 L50 0" fill="none" stroke="#ADCDED" stroke-width="1.5"/></pattern><rect id="Icons.invisible-icon-1" fill="#000" opacity="0" x="0" y="0" width="0" height="0"/><g id="Bpmn.CompensationIcon-1" focusable="false"><path class="subProcessIconStroke" stroke="black" stroke-width="1" fill="none" d="M0,6 L5.5,0 L5.5,12 Z"/><path class="subProcessIconStroke" stroke="black" stroke-width="1" fill="none" d="M6.5,6 L12,0 L12,12 Z"/></g><marker id="Arrows.FilledEnd-428gb0-1" class="ArrowsFilledEnd" markerUnits="userSpaceOnUse" refX="14" refY="5" markerWidth="14" markerHeight="10" orient="auto"><path stroke="none" fill="#428EB0" d="M 0 0 L 14 5 L 0 10 z"/></marker></defs><g id="layersGroup"><g id="svgMainShapeLayer-1" class="svgShapeLayer" cursor="default" transform="translate(405,604)"><g id="519ee0ad-3e88-4dae-b5de-f3ed1a90a5a4" class="sapGalileiSymbolNode" focusable="true" sap-automation="Pool/2. Source" transform="translate(-401,-600)" style="user-select: none; -webkit-user-drag: none; -webkit-tap-highlight-color: rgba(0, 0, 0, 0); touch-action: none;"><title>Pool '2. Source'</title><g focusable="false"><rect stroke="#E0CC9F" stroke-width="2" fill="#FEFEEE" x="0" y="0" width="656" height="240"/></g><text fill="black" cursor="default" x="-16" y="124" font-size="14px" font-family="Arial, Helvetica, sans-serif" transform="rotate(270,15,120)">2. Source</text><line stroke="lightgray" stroke-width="1" fill="none" x1="30" y1="0" x2="30" y2="240"/></g><g id="ed289cc6-4854-4c7e-9422-faf0a8f43155" class="sapGalileiSymbolNode" focusable="true" sap-automation="Lane/Sourcing Agent" transform="translate(-371,-480)" style="user-select: none; -webkit-user-drag: none; -webkit-tap-highlight-color: rgba(0, 0, 0, 0); touch-action: none;"><title>Pool '2. Source'
Lane 'Sourcing Agent'</title><g focusable="false"><rect stroke="#E0CC9F" stroke-width="2" fill="#FEFEEE" x="0" y="0" width="626" height="120"/></g><text fill="black" cursor="default" x="-34" y="64" font-size="14px" font-family="Arial, Helvetica, sans-serif" transform="rotate(270,15,60)">Sourcing Agent</text></g><g id="9f12a02f-766f-48ed-b05f-c3d77388a2d6" class="sapGalileiSymbolNode" focusable="true" sap-automation="Lane/Business Stakeholder" transform="translate(-371,-600)" style="user-select: none; -webkit-user-drag: none; -webkit-tap-highlight-color: rgba(0, 0, 0, 0); touch-action: none;"><title>Pool '2. Source'
Lane 'Business Stakeholder'</title><g focusable="false"><rect stroke="#E0CC9F" stroke-width="2" fill="#FEFEEE" x="0" y="0" width="626" height="120"/></g><text fill="black" cursor="default" x="-16" y="47" font-size="14px" font-family="Arial, Helvetica, sans-serif" transform="rotate(270,22,60.5)"><tspan x="-16" y="58">Business</tspan><tspan x="-16" y="72">Stakeholder</tspan></text></g><g id="14d83686-291e-492a-98c7-49ae8f1c6c41" class="sapGalileiSymbolNode" focusable="true" sap-automation="Task/2.02 Sourcing Project" transform="translate(-73,-444)" style="user-select: none; -webkit-user-drag: none; -webkit-tap-highlight-color: rgba(0, 0, 0, 0); touch-action: none;"><title>Task '2.02 Sourcing Project'</title><g focusable="false"><rect class="task" stroke="#428EB0" stroke-width="1" fill="#D9EFFF" x="0" y="0" width="100" height="60" rx="8" ry="8"/></g><use style="pointer-events: none;" x="2" y="2" width="0" height="0" xmlns:ns1="http://www.w3.org/1999/xlink" ns1:href="#Icons.invisible-icon-1"/><text class="taskName" fill="black" cursor="default" x="13" y="18" font-size="12px" font-family="Arial, Helvetica, sans-serif"><tspan x="13" y="28">2.02 Sourcing</tspan><tspan x="31" y="40">Project</tspan></text></g><g id="8d8795a0-2144-46d7-862f-6050473b1516" class="sapGalileiSymbolNode" focusable="true" sap-automation="Task/2.01 Sourcing Request" transform="translate(-184,-570)" style="user-select: none; -webkit-user-drag: none; -webkit-tap-highlight-color: rgba(0, 0, 0, 0); touch-action: none;"><title>Task '2.01 Sourcing Request'</title><g focusable="false"><rect class="task" stroke="#428EB0" stroke-width="1" fill="#D9EFFF" x="0" y="0" width="100" height="60" rx="8" ry="8"/></g><use style="pointer-events: none;" x="2" y="2" width="0" height="0" xmlns:ns2="http://www.w3.org/1999/xlink" ns2:href="#Icons.invisible-icon-1"/><text class="taskName" fill="black" cursor="default" x="13" y="18" font-size="12px" font-family="Arial, Helvetica, sans-serif"><tspan x="13" y="28">2.01 Sourcing</tspan><tspan x="28" y="40">Request</tspan></text></g><g id="29b9b988-1a7a-4ae6-a6f6-8757cabbfd00" class="sapGalileiSymbolLink" focusable="true" sap-automation="SequenceFlow/Sequence Flow 1" style="user-select: none; -webkit-user-drag: none; -webkit-tap-highlight-color: rgba(0, 0, 0, 0); touch-action: none;"><title>Sequence Flow 'Sequence Flow 1'</title><path stroke="#428EB0" stroke-width="1" fill="none" d="M-252.5,-540 L-184.5,-540" marker-end="url(#Arrows.FilledEnd-428gb0-1)"/><path stroke="#FFFFFF" stroke-width="10" fill="none" opacity="0.01" d="M-252.5,-540 L-184.5,-540"/></g><g id="3fa1f65f-5265-4b81-80d1-d2571d9b19a2" class="sapGalileiSymbolLink" focusable="true" sap-automation="SequenceFlow/Sequence Flow 2" style="user-select: none; -webkit-user-drag: none; -webkit-tap-highlight-color: rgba(0, 0, 0, 0); touch-action: none;"><title>Sequence Flow 'Sequence Flow 2'</title><path stroke="#428EB0" stroke-width="1" fill="none" d="M-134,-509.5 L-134,-420 Q-134,-410 -124,-410 L-73.5,-410" marker-end="url(#Arrows.FilledEnd-428gb0-1)"/><path stroke="#FFFFFF" stroke-width="10" fill="none" opacity="0.01" d="M-134,-509.5 L-134,-420 Q-134,-410 -124,-410 L-73.5,-410"/></g><g id="d8ecdd76-eed9-4a20-b651-cd53aef53f29" class="sapGalileiSymbolNode" focusable="true" sap-automation="StartEvent/Determine if it is necessary to source a product or service" transform="translate(-285,-556)" style="user-select: none; -webkit-user-drag: none; -webkit-tap-highlight-color: rgba(0, 0, 0, 0); touch-action: none;"><title>Start Event 'Determine if it is necessary to source a product or service'</title><g focusable="false"><circle class="startEvent" stroke="#288000" stroke-width="1" fill="#ECFDDC" display="inline" cx="16" cy="16" r="16"/><use style="pointer-events: none;" x="0" y="0" width="0" height="0" xmlns:ns3="http://www.w3.org/1999/xlink" ns3:href="#Icons.invisible-icon-1"/></g><text class="startEventName" fill="black" cursor="default" x="-29" y="36" font-size="12px" font-family="Arial, Helvetica, sans-serif"><tspan x="-27" y="46">Determine if it is</tspan><tspan x="-18" y="58">necessary to</tspan><tspan x="-29" y="70">source a produ...</tspan></text></g></g></g></svg>